<svg xmlns="http://www.w3.org/2000/svg" xml:space="preserve" viewBox="0 0 16 16" id="Users"> <path d="M15.09 10.466c-1.371-.866-2.942-1.34-4.565-1.43.375.176.747.362 1.099.584A3.001 3.001 0 0 1 13 12.146V15h3v-2.854c0-.682-.349-1.326-.91-1.68z" fill="#0b0814" class="color000000 svgShape"></path> <path d="M11.09 10.466c-3.04-1.918-7.14-1.918-10.18 0-.561.353-.91.997-.91 1.68V15h12v-2.854c0-.683-.349-1.327-.91-1.68zM8.994 7.834C9.317 7.932 9.651 8 10 8c1.93 0 3.5-1.57 3.5-3.5S11.93 1 10 1c-.349 0-.683.068-1.006.166C9.911 1.99 10.5 3.172 10.5 4.5s-.589 2.51-1.506 3.334z" fill="#0b0814" class="color000000 svgShape"></path> <circle cx="6" cy="4.5" r="3.5" fill="#0b0814" class="color000000 svgShape"></circle> </svg>